ffmpeg started on 2025-05-19 at 12:17:47
Report written to "D:\Convert\FFMetrics\reports\psnr_report-6.txt"
Log level: 32
Command line:
ffmpeg -hide_banner -nostdin -i "G:\\\xc0\xed\xe8\xec\xe5\\\xce\xed\xe3\xee\xe8\xed\xe3\xe8\\!_30_\xc2\xe5\xf1\xed\xe0_2023\\DreamCast\\\xd2\xe5\xed\xfc \xeb\xfe\xe1\xe2\xe8 \xe2 \xf2\xe0\xe9\xed\xee\xe9 \xea\xee\xec\xed\xe0\xf2\xe5\\[DC] Aiyou de Mishi - 06_Telegram_HEVC.mkv" -i "G:\\\xc0\xed\xe8\xec\xe5\\\xce\xed\xe3\xee\xe8\xed\xe3\xe8\\!_30_\xc2\xe5\xf1\xed\xe0_2023\\DreamCast\\\xd2\xe5\xed\xfc \xeb\xfe\xe1\xe2\xe8 \xe2 \xf2\xe0\xe9\xed\xee\xe9 \xea\xee\xec\xed\xe0\xf2\xe5\\[DC] Aiyou de Mishi - 06_Telegram.mp4" -lavfi "[0:v]settb=AVTB,setpts=PTS-STARTPTS,format=pix_fmts=yuv420p10,fps=24/1,scale=1920:1080:flags=bicubic[main];[1:v]settb=AVTB,setpts=PTS-STARTPTS,format=pix_fmts=yuv420p,fps=24/1,scale=1920:1080:flags=bicubic[ref];[main][ref]psnr=eof_action=endall:stats_file='D\\:/Convert/FFMetrics/logs/psnr_logfile-6.txt'" -f null -
Input #0, matroska,webm, from 'G:\Аниме\Онгоинги\!_30_Весна_2023\DreamCast\Тень любви в тайной комнате\[DC] Aiyou de Mishi - 06_Telegram_HEVC.mkv':
  Metadata:
    COMPATIBLE_BRANDS: isomiso2avc1mp41
    MAJOR_BRAND     : isom
    MINOR_VERSION   : 512
    ENCODER         : Lavf61.7.100
  Duration: 00:15:37.88, start: -0.021000, bitrate: 1223 kb/s
  Stream #0:0: Video: hevc (Main 10), yuv420p10le(tv, bt709, progressive), 1920x1080 [SAR 1:1 DAR 16:9], 24 fps, 24 tbr, 1k tbn (default)
      Metadata:
        HANDLER_NAME    : VideoHandler
        VENDOR_ID       : [0][0][0][0]
        ENCODER         : Lavc61.19.100 libx265
        BPS             : 1023271
        DURATION        : 00:15:37.749666666
        NUMBER_OF_FRAMES: 22506
        NUMBER_OF_BYTES : 119946512
        _STATISTICS_WRITING_APP: mkvpropedit v66.0.0 ('Josie') 64-bit
        _STATISTICS_WRITING_DATE_UTC: 2025-05-19 07:38:49
        _STATISTICS_TAGS: BPS DURATION NUMBER_OF_FRAMES NUMBER_OF_BYTES
  Stream #0:1: Audio: aac (LC), 48000 Hz, stereo, fltp (default)
      Metadata:
        HANDLER_NAME    : SoundHandler
        VENDOR_ID       : [0][0][0][0]
        ENCODER         : Lavc61.19.100 aac
        BPS             : 196643
        DURATION        : 00:15:37.856000000
        NUMBER_OF_FRAMES: 43963
        NUMBER_OF_BYTES : 23052914
        _STATISTICS_WRITING_APP: mkvpropedit v66.0.0 ('Josie') 64-bit
        _STATISTICS_WRITING_DATE_UTC: 2025-05-19 07:38:49
        _STATISTICS_TAGS: BPS DURATION NUMBER_OF_FRAMES NUMBER_OF_BYTES
Input #1, mov,mp4,m4a,3gp,3g2,mj2, from 'G:\Аниме\Онгоинги\!_30_Весна_2023\DreamCast\Тень любви в тайной комнате\[DC] Aiyou de Mishi - 06_Telegram.mp4':
  Metadata:
    major_brand     : isom
    minor_version   : 512
    compatible_brands: isomiso2avc1mp41
    encoder         : Lavf60.4.101
  Duration: 00:15:37.84, start: 0.000000, bitrate: 2990 kb/s
  Stream #1:0[0x1](und): Video: h264 (Main) (avc1 / 0x31637661), yuv420p(tv, bt709, progressive), 1920x1080 [SAR 1:1 DAR 16:9], 2788 kb/s, 24 fps, 24 tbr, 12288 tbn (default)
      Metadata:
        handler_name    : VideoHandler
        vendor_id       : [0][0][0][0]
        encoder         : Lavc60.9.100 h264_qsv
  Stream #1:1[0x2](und): Audio: aac (LC) (mp4a / 0x6134706D), 48000 Hz, stereo, fltp, 196 kb/s (default)
      Metadata:
        handler_name    : SoundHandler
        vendor_id       : [0][0][0][0]
Stream mapping:
  Stream #0:0 (hevc) -> settb:default
  Stream #1:0 (h264) -> settb:default
  psnr:default -> Stream #0:0 (wrapped_avframe)
  Stream #0:1 -> #0:1 (aac (native) -> pcm_s16le (native))
Output #0, null, to 'pipe:':
  Metadata:
    COMPATIBLE_BRANDS: isomiso2avc1mp41
    MAJOR_BRAND     : isom
    MINOR_VERSION   : 512
    encoder         : Lavf61.7.100
  Stream #0:0: Video: wrapped_avframe, yuv420p10le(tv, bt709, progressive), 1920x1080 [SAR 1:1 DAR 16:9], q=2-31, 200 kb/s, 24 fps, 24 tbn
      Metadata:
        encoder         : Lavc61.19.100 wrapped_avframe
  Stream #0:1: Audio: pcm_s16le, 48000 Hz, stereo, s16, 1536 kb/s (default)
      Metadata:
        HANDLER_NAME    : SoundHandler
        VENDOR_ID       : [0][0][0][0]
        _STATISTICS_TAGS: BPS DURATION NUMBER_OF_FRAMES NUMBER_OF_BYTES
        BPS             : 196643
        DURATION        : 00:15:37.856000000
        NUMBER_OF_FRAMES: 43963
        NUMBER_OF_BYTES : 23052914
        _STATISTICS_WRITING_APP: mkvpropedit v66.0.0 ('Josie') 64-bit
        _STATISTICS_WRITING_DATE_UTC: 2025-05-19 07:38:49
        encoder         : Lavc61.19.100 pcm_s16le
frame=  183 fps=0.0 q=-0.0 size=N/A time=00:00:07.62 bitrate=N/A speed=14.8x    frame=  363 fps=355 q=-0.0 size=N/A time=00:00:15.12 bitrate=N/A speed=14.8x    frame=  615 fps=397 q=-0.0 size=N/A time=00:00:25.62 bitrate=N/A speed=16.5x    frame=  828 fps=403 q=-0.0 size=N/A time=00:00:34.50 bitrate=N/A speed=16.8x    frame= 1023 fps=398 q=-0.0 size=N/A time=00:00:42.62 bitrate=N/A speed=16.6x    frame= 1184 fps=383 q=-0.0 size=N/A time=00:00:49.33 bitrate=N/A speed=15.9x    frame= 1348 fps=374 q=-0.0 size=N/A time=00:00:56.16 bitrate=N/A speed=15.6x    frame= 1521 fps=370 q=-0.0 size=N/A time=00:01:03.37 bitrate=N/A speed=15.4x    frame= 1713 fps=369 q=-0.0 size=N/A time=00:01:11.37 bitrate=N/A speed=15.4x    frame= 1850 fps=359 q=-0.0 size=N/A time=00:01:17.08 bitrate=N/A speed=  15x    frame= 2062 fps=364 q=-0.0 size=N/A time=00:01:25.91 bitrate=N/A speed=15.2x    frame= 2292 fps=371 q=-0.0 size=N/A time=00:01:35.50 bitrate=N/A speed=15.4x    frame= 2478 fps=370 q=-0.0 size=N/A time=00:01:43.25 bitrate=N/A speed=15.4x    frame= 2640 fps=366 q=-0.0 size=N/A time=00:01:50.00 bitrate=N/A speed=15.2x    frame= 2892 fps=375 q=-0.0 size=N/A time=00:02:00.50 bitrate=N/A speed=15.6x    frame= 3162 fps=383 q=-0.0 size=N/A time=00:02:11.75 bitrate=N/A speed=  16x    frame= 3404 fps=389 q=-0.0 size=N/A time=00:02:21.83 bitrate=N/A speed=16.2x    frame= 3644 fps=393 q=-0.0 size=N/A time=00:02:31.83 bitrate=N/A speed=16.4x    frame= 3905 fps=399 q=-0.0 size=N/A time=00:02:42.70 bitrate=N/A speed=16.6x    frame= 4163 fps=404 q=-0.0 size=N/A time=00:02:53.45 bitrate=N/A speed=16.8x    frame= 4424 fps=409 q=-0.0 size=N/A time=00:03:04.33 bitrate=N/A speed=  17x    frame= 4699 fps=414 q=-0.0 size=N/A time=00:03:15.79 bitrate=N/A speed=17.3x    frame= 4948 fps=418 q=-0.0 size=N/A time=00:03:26.16 bitrate=N/A speed=17.4x    frame= 5188 fps=419 q=-0.0 size=N/A time=00:03:36.16 bitrate=N/A speed=17.5x    frame= 5432 fps=422 q=-0.0 size=N/A time=00:03:46.33 bitrate=N/A speed=17.6x    frame= 5660 fps=423 q=-0.0 size=N/A time=00:03:55.83 bitrate=N/A speed=17.6x    frame= 5927 fps=426 q=-0.0 size=N/A time=00:04:06.95 bitrate=N/A speed=17.7x    frame= 6151 fps=426 q=-0.0 size=N/A time=00:04:16.29 bitrate=N/A speed=17.8x    frame= 6406 fps=429 q=-0.0 size=N/A time=00:04:26.91 bitrate=N/A speed=17.9x    frame= 6658 fps=431 q=-0.0 size=N/A time=00:04:37.41 bitrate=N/A speed=17.9x    frame= 6890 fps=431 q=-0.0 size=N/A time=00:04:47.08 bitrate=N/A speed=  18x    frame= 7135 fps=432 q=-0.0 size=N/A time=00:04:57.29 bitrate=N/A speed=  18x    frame= 7380 fps=434 q=-0.0 size=N/A time=00:05:07.50 bitrate=N/A speed=18.1x    frame= 7630 fps=435 q=-0.0 size=N/A time=00:05:17.91 bitrate=N/A speed=18.1x    frame= 7870 fps=436 q=-0.0 size=N/A time=00:05:27.91 bitrate=N/A speed=18.2x    frame= 8080 fps=435 q=-0.0 size=N/A time=00:05:36.66 bitrate=N/A speed=18.1x    frame= 8304 fps=435 q=-0.0 size=N/A time=00:05:46.00 bitrate=N/A speed=18.1x    frame= 8524 fps=435 q=-0.0 size=N/A time=00:05:55.16 bitrate=N/A speed=18.1x    frame= 8739 fps=435 q=-0.0 size=N/A time=00:06:04.12 bitrate=N/A speed=18.1x    frame= 8932 fps=433 q=-0.0 size=N/A time=00:06:12.16 bitrate=N/A speed=  18x    frame= 9196 fps=435 q=-0.0 size=N/A time=00:06:23.16 bitrate=N/A speed=18.1x    frame= 9408 fps=434 q=-0.0 size=N/A time=00:06:32.00 bitrate=N/A speed=18.1x    frame= 9671 fps=436 q=-0.0 size=N/A time=00:06:42.95 bitrate=N/A speed=18.2x    frame= 9940 fps=438 q=-0.0 size=N/A time=00:06:54.16 bitrate=N/A speed=18.2x    frame=10214 fps=440 q=-0.0 size=N/A time=00:07:05.58 bitrate=N/A speed=18.3x    frame=10473 fps=441 q=-0.0 size=N/A time=00:07:16.37 bitrate=N/A speed=18.4x    frame=10729 fps=442 q=-0.0 size=N/A time=00:07:27.04 bitrate=N/A speed=18.4x    frame=10994 fps=444 q=-0.0 size=N/A time=00:07:38.08 bitrate=N/A speed=18.5x    frame=11263 fps=446 q=-0.0 size=N/A time=00:07:49.29 bitrate=N/A speed=18.6x    frame=11496 fps=446 q=-0.0 size=N/A time=00:07:59.00 bitrate=N/A speed=18.6x    frame=11738 fps=446 q=-0.0 size=N/A time=00:08:09.08 bitrate=N/A speed=18.6x    frame=11989 fps=447 q=-0.0 size=N/A time=00:08:19.54 bitrate=N/A speed=18.6x    frame=12231 fps=448 q=-0.0 size=N/A time=00:08:29.62 bitrate=N/A speed=18.6x    frame=12472 fps=448 q=-0.0 size=N/A time=00:08:39.66 bitrate=N/A speed=18.7x    frame=12715 fps=448 q=-0.0 size=N/A time=00:08:49.79 bitrate=N/A speed=18.7x    frame=12966 fps=449 q=-0.0 size=N/A time=00:09:00.25 bitrate=N/A speed=18.7x    frame=13208 fps=449 q=-0.0 size=N/A time=00:09:10.33 bitrate=N/A speed=18.7x    frame=13450 fps=450 q=-0.0 size=N/A time=00:09:20.41 bitrate=N/A speed=18.7x    frame=13692 fps=450 q=-0.0 size=N/A time=00:09:30.50 bitrate=N/A speed=18.7x    frame=13964 fps=451 q=-0.0 size=N/A time=00:09:41.83 bitrate=N/A speed=18.8x    frame=14205 fps=452 q=-0.0 size=N/A time=00:09:51.87 bitrate=N/A speed=18.8x    frame=14465 fps=452 q=-0.0 size=N/A time=00:10:02.70 bitrate=N/A speed=18.8x    frame=14666 fps=451 q=-0.0 size=N/A time=00:10:11.08 bitrate=N/A speed=18.8x    frame=14898 fps=451 q=-0.0 size=N/A time=00:10:20.75 bitrate=N/A speed=18.8x    frame=15139 fps=451 q=-0.0 size=N/A time=00:10:30.79 bitrate=N/A speed=18.8x    frame=15390 fps=452 q=-0.0 size=N/A time=00:10:41.25 bitrate=N/A speed=18.8x    frame=15652 fps=453 q=-0.0 size=N/A time=00:10:52.16 bitrate=N/A speed=18.9x    frame=15886 fps=453 q=-0.0 size=N/A time=00:11:01.91 bitrate=N/A speed=18.9x    frame=16151 fps=453 q=-0.0 size=N/A time=00:11:12.95 bitrate=N/A speed=18.9x    frame=16407 fps=454 q=-0.0 size=N/A time=00:11:23.62 bitrate=N/A speed=18.9x    frame=16665 fps=455 q=-0.0 size=N/A time=00:11:34.37 bitrate=N/A speed=18.9x    frame=16912 fps=455 q=-0.0 size=N/A time=00:11:44.66 bitrate=N/A speed=  19x    frame=17131 fps=455 q=-0.0 size=N/A time=00:11:53.79 bitrate=N/A speed=18.9x    frame=17369 fps=455 q=-0.0 size=N/A time=00:12:03.70 bitrate=N/A speed=18.9x    frame=17626 fps=455 q=-0.0 size=N/A time=00:12:14.41 bitrate=N/A speed=  19x    frame=17900 fps=456 q=-0.0 size=N/A time=00:12:25.83 bitrate=N/A speed=  19x    frame=18169 fps=457 q=-0.0 size=N/A time=00:12:37.04 bitrate=N/A speed=  19x    frame=18427 fps=458 q=-0.0 size=N/A time=00:12:47.79 bitrate=N/A speed=19.1x    frame=18667 fps=458 q=-0.0 size=N/A time=00:12:57.79 bitrate=N/A speed=19.1x    frame=18867 fps=457 q=-0.0 size=N/A time=00:13:06.12 bitrate=N/A speed=  19x    frame=19071 fps=456 q=-0.0 size=N/A time=00:13:14.62 bitrate=N/A speed=  19x    frame=19271 fps=455 q=-0.0 size=N/A time=00:13:22.95 bitrate=N/A speed=  19x    frame=19480 fps=455 q=-0.0 size=N/A time=00:13:31.66 bitrate=N/A speed=18.9x    frame=19722 fps=455 q=-0.0 size=N/A time=00:13:41.75 bitrate=N/A speed=  19x    frame=19953 fps=455 q=-0.0 size=N/A time=00:13:51.37 bitrate=N/A speed=18.9x    frame=20182 fps=455 q=-0.0 size=N/A time=00:14:00.91 bitrate=N/A speed=18.9x    frame=20440 fps=455 q=-0.0 size=N/A time=00:14:11.66 bitrate=N/A speed=  19x    frame=20586 fps=453 q=-0.0 size=N/A time=00:14:17.75 bitrate=N/A speed=18.9x    frame=20722 fps=451 q=-0.0 size=N/A time=00:14:23.41 bitrate=N/A speed=18.8x    frame=20885 fps=450 q=-0.0 size=N/A time=00:14:30.20 bitrate=N/A speed=18.7x    frame=21104 fps=449 q=-0.0 size=N/A time=00:14:39.33 bitrate=N/A speed=18.7x    frame=21316 fps=449 q=-0.0 size=N/A time=00:14:48.16 bitrate=N/A speed=18.7x    frame=21516 fps=448 q=-0.0 size=N/A time=00:14:56.50 bitrate=N/A speed=18.7x    frame=21722 fps=448 q=-0.0 size=N/A time=00:15:05.08 bitrate=N/A speed=18.7x    frame=21925 fps=447 q=-0.0 size=N/A time=00:15:13.54 bitrate=N/A speed=18.6x    frame=22125 fps=447 q=-0.0 size=N/A time=00:15:21.87 bitrate=N/A speed=18.6x    frame=22335 fps=446 q=-0.0 size=N/A time=00:15:30.62 bitrate=N/A speed=18.6x    [Parsed_psnr_10 @ 000001c179643d80] PSNR y:48.508310 u:52.165998 v:51.852226 average:49.393373 min:36.396417 max:inf
[out#0/null @ 000001c16ca5ba00] video:9671KiB audio:175852KiB subtitle:0KiB other streams:0KiB global headers:0KiB muxing overhead: unknown
frame=22506 fps=447 q=-0.0 Lsize=N/A time=00:15:37.75 bitrate=N/A speed=18.6x    
